<svg id="Calque_3" data-name="Calque 3" xmlns="http://www.w3.org/2000/svg" viewBox="0 0 148.17 55.79"><defs><style>.cls-1{fill:#fff;}.cls-2{fill:#efc75e;}.cls-3{fill:#e2574c;}.cls-4{fill:#cf5349;}.cls-5{fill:#d7b354;}.cls-6{fill:#ebebeb;}.cls-7{fill:#324d5b;}.cls-8{fill:#ccd0d2;}</style></defs><title>COMET_LOGO_WHITE</title><path class="cls-1" d="M8,24.46v-.27q0-.69.36-.69t.35.69q-.06.69-.06,1.09c-.18.09-.25.13-.22.13q-.4,0-.42-.29ZM8.21,28a.3.3,0,0,1,.36.11.71.71,0,0,1,.07.44,1.77,1.77,0,0,0,0,.5q.13.91-.27.88a.38.38,0,0,1-.4-.41V28.19C8,28.08,8.06,28,8.21,28Zm.22,6.3q-.2-.09-.21-.44c0-.23,0-.41,0-.55a4.62,4.62,0,0,1,0-.49q0-.38.25-.38t.4.25l.09,1.41Q8.9,34.57,8.43,34.26ZM8.25,20.12a3.19,3.19,0,0,0,0-.55q0-.47.26-.48a.51.51,0,0,1,.35.08.49.49,0,0,1,.07.46,2.73,2.73,0,0,0-.07.52q-.07.83-.36.83t-.33-.27A3.48,3.48,0,0,1,8.25,20.12ZM8.83,38.3l-.18-1.18q0-.31.33-.31t.38.67q0,.4.13.83t-.38.42Q8.87,38.72,8.83,38.3Zm0-22.21q0-.27.13-.76a1,1,0,0,1,.25-.6q.49-.25.49.22a5.92,5.92,0,0,1-.18,1q-.09.67-.42.67T8.81,16.09Zm1,25.08q.25-.15.42.44a5.28,5.28,0,0,1,.16.54,2.15,2.15,0,0,1,.13.56.35.35,0,0,1-.28.36q-.28.09-.41-.45-.07-.27-.17-.57a1.92,1.92,0,0,1-.1-.61C9.54,41.35,9.63,41.26,9.79,41.17Zm.6-30.48a.3.3,0,0,1,.4-.2q.27.09.27.29a1.61,1.61,0,0,1-.16.44,3.71,3.71,0,0,0-.18.44l-.09.23a2.09,2.09,0,0,0-.07.21q-.16.29-.41.2A.32.32,0,0,1,9.9,12Zm-.18,17.88v-.51a2.86,2.86,0,0,1,0-.47,2.87,2.87,0,0,0,0-.47q0-.2,0-.5a1.78,1.78,0,0,1,0-.5l.09-1.43v-.49l.2-2.81q0-.22,0-.45a4.41,4.41,0,0,1,.06-.49q.2-1.67.35-3t.48-3.14a34.28,34.28,0,0,1,.9-3.56,9,9,0,0,1,1.55-3,6.73,6.73,0,0,1,2.14-1.87A5.6,5.6,0,0,1,21.71,6l.85.6A9.86,9.86,0,0,1,23.9,7.93a6.35,6.35,0,0,1,.89,1.6q.07.2.18.58a2.24,2.24,0,0,1,.11.58,2.54,2.54,0,0,1-1.9,2.71,2.49,2.49,0,0,1-3-1,2.92,2.92,0,0,1-.31-.58,4,4,0,0,0-.27-.56q-.13-.13-.45-.39a.93.93,0,0,0-.56-.26l-.1.08-.1.08a1.36,1.36,0,0,0-.16.2,9.07,9.07,0,0,0-1.35,4.17q-.44,3-.64,4.46a15.71,15.71,0,0,0-.18,1.71q0,.88-.13,1.53a1.38,1.38,0,0,0,0,.33v.31a2.87,2.87,0,0,0-.06.67,4.05,4.05,0,0,1,0,.67l-.13,4.11a3.58,3.58,0,0,0,0,.67q0,.27,0,.67a50.16,50.16,0,0,0,.59,7.17,14,14,0,0,0,2.6,6.65q.89,1.21,1.62,1.09t.73-2.12v-.65a2.57,2.57,0,0,1,1-1.87,2.92,2.92,0,0,1,1.92-.62,2.35,2.35,0,0,1,2.5,2.34l.07,1.18a1.38,1.38,0,0,1,0,.28,1.2,1.2,0,0,0,0,.26q0,.11,0,.56a7.28,7.28,0,0,1-.49,1.88q-.25.6-.38.85a7.16,7.16,0,0,1-1.92,2.3,6,6,0,0,1-3.57,1.09A5.67,5.67,0,0,1,17.7,50a7.82,7.82,0,0,1-2.13-1.47,10.34,10.34,0,0,1-1.91-2.42,21.84,21.84,0,0,1-1.35-2.82,26.88,26.88,0,0,1-1.65-6.65,61.93,61.93,0,0,1-.45-7.59Zm1.07,16.79q.22,0,.54.67l.35.75q.17.37-.39.37-.2,0-.51-.69a4.48,4.48,0,0,1-.31-.78Q11,45.35,11.29,45.35ZM12.89,7.47q-.6.83-.71.83-.34,0-.33-.33a2.22,2.22,0,0,1,.38-.7,1.83,1.83,0,0,1,.56-.64q.42-.18.42.36A1.54,1.54,0,0,1,12.89,7.47ZM13.9,49a1.15,1.15,0,0,1,.33.25,2.73,2.73,0,0,0,.51.39,1.21,1.21,0,0,1,.38.3.3.3,0,0,1-.22.47q-.2.07-.77-.39a3.9,3.9,0,0,1-.61-.55q-.18-.33.22-.45A.17.17,0,0,1,13.9,49Zm1.23-44.7L15.59,4a2.72,2.72,0,0,1,.47-.22.35.35,0,0,1,.42.07q.25.31-.07.47L16,4.57,15.13,5q-.33,0-.33-.4Q14.79,4.48,15.13,4.29ZM17.7,51l.48.09q1.09.27,1.09.49,0,.42-.42.33l-.76-.18q-.69-.13-.69-.42T17.7,51Zm1.08-21.23q.31,0,.31,1,0,.87-.31.87t-.35-.54q0-.54,0-1.07Q18.45,29.79,18.79,29.79Zm.09-4.42q.4,0,.33.55a7.43,7.43,0,0,0-.07.77q0,.6-.31.6A.3.3,0,0,1,18.5,27v-.54Q18.5,25.37,18.88,25.37Zm.18,10.38a7.34,7.34,0,0,1-.28-.93q-.15-.59.32-.59.25,0,.4.69l.25.83q0,.36-.31.36T19.05,35.75Zm-.18-14.18q.09-.65.4-.65t.31.36l-.16,1.21q-.09.47-.37.37t-.28-.28A9.46,9.46,0,0,1,18.88,21.58ZM20.35,4.22l-.29-.06Q19,4,19,3.74t.36-.31h.18a1.5,1.5,0,0,1,.4.06,1.29,1.29,0,0,0,.33.06q.63.09.63.38t-.22.33A1.7,1.7,0,0,1,20.35,4.22Zm.49,13.38-.27.4q-.36.54-.25.45a.39.39,0,0,1-.42,0q-.25-.11,0-.54l.39-.66q.28-.46.55-.46a.28.28,0,0,1,.31.31A1.2,1.2,0,0,1,20.84,17.61ZM22,37.08l.57,0q1,0,1,.36t-.39.35a6.48,6.48,0,0,0-.9-.06,1,1,0,0,1-.42-.07.34.34,0,0,1-.2-.31Q21.58,37,22,37.08Zm0,14.48.25,0q1.52-.11,1.52.22t-.56.36l-.49.07h-.56a.35.35,0,0,1-.31-.38C21.8,51.71,21.85,51.63,22,51.56ZM24.11,4.95q.84.6.84.8t-.27.31a2.17,2.17,0,0,1-.8-.47q-.6-.4-.6-.58Q23.27,4.35,24.11,4.95Zm-.46,10.58.54-.11q.8-.16.94,0,.36.47-.49.58l-.93.2q-.39.09-.39-.38Q23.32,15.6,23.65,15.53Zm2.29,34.7a5.86,5.86,0,0,0,.55-.61q.22-.29.42-.16t.2.22a1,1,0,0,1-.22.51l-.58.6a.78.78,0,0,1-.4.22q-.31,0-.31-.38S25.71,50.46,25.94,50.23Zm.39-12.56a1.08,1.08,0,0,1,.56.22l.47.29q.51.31.35.54a.47.47,0,0,1-.37.22L27,38.7l-.78-.4A.32.32,0,0,1,26,38Q26,37.67,26.33,37.67Zm.22-29.78q.27,0,.55.71a4.15,4.15,0,0,1,.28.85c0,.1-.09.2-.26.28s-.3,0-.39-.26-.17-.37-.3-.67a2,2,0,0,1-.19-.62Q26.24,7.89,26.55,7.89Zm.54,5.42a2.77,2.77,0,0,0,.13-.78.3.3,0,0,1,.33-.33q.33,0,.33.31a5.09,5.09,0,0,1-.13.93q-.13.64-.47.64T27,13.74A1.91,1.91,0,0,1,27.09,13.32ZM28,46.38q0-.16.13-.52t.2-.44a.31.31,0,0,1,.45,0q.13.18,0,.69t-.23.78q-.13.33-.39.32t-.26-.35A2.65,2.65,0,0,1,28,46.38Zm.68-3.84a4,4,0,0,0,0-.67q-.13-.92.29-.92t.36.83v.76q0,.34-.31.33T28.64,42.54Z"/><path class="cls-1" d="M58.59,29.88q0-.47.35-.44a.35.35,0,0,1,.35.39v.93q0,.59-.27.59t-.42-.29Zm.22,4q.4,0,.41.27t0,1.27q0,.4-.32.37t-.32-.28V34.24Q58.59,33.92,58.81,33.92Zm.42,4.55,0,1.34q0,.49-.35.46a.34.34,0,0,1-.35-.37V38.63Q58.59,38.08,59.24,38.48ZM59,25a.34.34,0,0,1,.35.37v1q0,.51-.36.51t-.35-.48q0-.48,0-.95T59,25Zm-.17,19.7q-.11-.07-.11-.69a5.38,5.38,0,0,0-.07-.78q-.07-.45.38-.45t.31.45v1.29Q59.33,45.11,58.81,44.71Zm-.07-23.16a3.29,3.29,0,0,0,0-.39s0-.13,0-.31a.25.25,0,0,1,.28-.27q.36,0,.36,1.41,0,.49-.35.52T58.72,22A3.82,3.82,0,0,1,58.74,21.55Zm.51,25.75q.22.09.29.94t-.2,1q-.31.07-.47-.89t.27-1Zm-.33-30.2q0-1,.36-1t.29,1a2.35,2.35,0,0,0,0,.64q0,.3-.33.3T58.92,17.09Zm.27-4.71q0-.67.27-.67.47,0,.42.3a4.5,4.5,0,0,0,0,.66q0,1.14-.35,1t-.35-.3Zm.32-3.58q.06-.39.08-.59a4.29,4.29,0,0,1,.06-.56q.06-.38.32-.38t.25,1.25q-.09.67-.38.67T59.52,8.8ZM74.91,17l.29-.36q.4-.4.79-.85t.79-.87q.31-.31.61-.67t.61-.69a1.78,1.78,0,0,0,.33-.33l2.81-3.08a4.06,4.06,0,0,1,.45-.5,6,6,0,0,0,.47-.5l.63-.69a1,1,0,0,1,.15-.16A1.32,1.32,0,0,0,83,8.07l.29-.33a2.46,2.46,0,0,1,2-.77,3,3,0,0,1,1.94.88,2.55,2.55,0,0,1,.54.89A4.16,4.16,0,0,1,87.93,10q0,.82,0,1.33a1.52,1.52,0,0,0,0,.37A1.26,1.26,0,0,1,88,12v.69l.07,2.7q0,.27,0,.69v.71a2.31,2.31,0,0,0,0,.36,2.06,2.06,0,0,1,0,.33v.67l.07,2.72a3.76,3.76,0,0,1,0,.69q0,.42,0,.71a1.63,1.63,0,0,0,0,.32,1.52,1.52,0,0,1,0,.3q0,.54,0,1.81t.06,1.61a3.77,3.77,0,0,1,0,.69q0,.42,0,.69a2.25,2.25,0,0,0,0,.37,1.91,1.91,0,0,1,0,.32q0,.49,0,1.79a11.31,11.31,0,0,0,.08,1.61,6.56,6.56,0,0,1,0,.69q0,.42,0,.71a1.87,1.87,0,0,0,0,.33,1.51,1.51,0,0,1,0,.29q0,.47,0,1.81t.06,1.61a4.07,4.07,0,0,1,0,.69q0,.38,0,.71a2,2,0,0,0,0,.35,1.91,1.91,0,0,1,0,.32q0,.54,0,1.8a11.62,11.62,0,0,0,.08,1.6,10.77,10.77,0,0,1,0,1.41,1.8,1.8,0,0,0,0,.35c0,.07,0,.17,0,.3l0,2.05q0,.67,0,1.21a2.64,2.64,0,0,1-.29,1.14,2.51,2.51,0,0,1-.54.71,2.48,2.48,0,0,1-2.67.63,2.54,2.54,0,0,1-1.84-2l-.09-1.09a5.17,5.17,0,0,1,0-.59q0-.3,0-.61a1.35,1.35,0,0,0,0-.29,1,1,0,0,1,0-.25,5.43,5.43,0,0,1,0-.86,5.05,5.05,0,0,0,0-.84l0-2.32q0-.6,0-1.15t0-1.15l-.09-2.84q0-.4,0-.85t0-.85a2.57,2.57,0,0,1,0-.57q0-.35,0-.61c0-.21,0-.39,0-.56s0-.36,0-.58q0-1.16,0-2.27t0-2.31a1.19,1.19,0,0,0,0-.28,1,1,0,0,1,0-.26q0-.4,0-.85t0-.85l-.07-2.32q0-.6,0-1.14t0-1.16q0-.31,0-.57t0-.57V18.79a1.18,1.18,0,0,0,0-.27,1.35,1.35,0,0,1,0-.29l0-1.67a1.49,1.49,0,0,0-.47.45l-1.72,1.88a1.85,1.85,0,0,0-.21.25,1.89,1.89,0,0,1-.21.25L77.47,22.2a3.74,3.74,0,0,1-1.54,1.18,2.46,2.46,0,0,1-1.92,0,3,3,0,0,0-.92-.22A2,2,0,0,1,72,22.45q-.2-.18-1.09-1.08L69,19.44l-1.87-1.86q-.85-.84-1-.93,0,2.32,0,4.55t0,4.53q0,.6,0,1.13t0,1.1q0,3.71-.06,7.4t0,7.38q0,.33,0,.56c0,.15,0,.33,0,.54q0,.83,0,2.35a10.64,10.64,0,0,1-.11,2.13,2.47,2.47,0,0,1-1.54,1.88,2.43,2.43,0,0,1-3.26-.85,4.15,4.15,0,0,1-.56-2.46q0-.78,0-1.5t0-1.47v-3q0-.78,0-1.5t0-1.52v-3q0-.74,0-1.46t0-1.51v-3q0-.36,0-.71t0-.78q0-.8,0-2.37a14.74,14.74,0,0,1,.06-2.14,18.88,18.88,0,0,0,.06-2.46q0-1.83,0-2.81a1.26,1.26,0,0,1,0-.32,1.5,1.5,0,0,0,0-.37V12.38q0-.38,0-.71t0-.74a3.49,3.49,0,0,1,1.09-2.7,2.44,2.44,0,0,1,1.61-.65,2.84,2.84,0,0,1,2.1.8q.29.31,1.69,1.72l3,3L73.17,16a18.15,18.15,0,0,0,1.43,1.35A1.56,1.56,0,0,1,74.91,17ZM61,51.18a2.42,2.42,0,0,1,.47.31q.85.54.85.67a.28.28,0,0,1-.31.31,3,3,0,0,1-.78-.33q-.65-.33-.65-.67T61,51.18ZM60.91,4.66q.11-.27,1-.57t.85.12q0,.31-.74.54-.47.16-.5.25t-.32.09Q60.78,5.08,60.91,4.66Zm5.34,47.71q-.31.13-.78.29t-.65,0q-.2-.22,0-.47a1.31,1.31,0,0,1,.47-.16,5.8,5.8,0,0,0,.77-.28q.5-.21.5.32Q66.6,52.23,66.25,52.36ZM66,5.77l-.5-.36q-.62-.33-.4-.55a.62.62,0,0,1,.36-.21A1.86,1.86,0,0,1,66,5l.6.39q.36.27.19.48c-.11.14-.2.21-.28.21A1.2,1.2,0,0,1,66,5.77Zm1.19,43.31.09-.58q0-.91.4-.92t.25.94q-.13,1-.47,1T67.21,49.08Zm.4-5q0-.92.31-.94t.33.89v.65a.35.35,0,0,1-.38.36Q67.61,45.06,67.61,44.1Zm.49-5.38q.33,0,.33.83c0,.27,0,.42,0,.45q0,.65-.33.65t-.31-1.52Q67.74,38.72,68.1,38.72Zm.12-4.45q.39-.08.26.93t-.07.89a.42.42,0,0,1-.36.11c-.15,0-.22-.12-.22-.31V34.64Q67.83,34.35,68.22,34.27Zm0-4.41a.31.31,0,0,1,.35.36v1q0,.51-.36.51t-.35-.52q0-.52,0-1A.31.31,0,0,1,68.22,29.86Zm0-4.46a.33.33,0,0,1,.35.38l0,1.27a.31.31,0,0,1-.36.29c-.19,0-.29-.13-.29-.36V25.78Q67.92,25.37,68.27,25.4Zm.52-3.08a2.4,2.4,0,0,1,.52.41l.5.48q.36.51-.29.51-.2,0-.65-.54-.31-.29-.47-.29c-.1,0-.16-.09-.16-.27S68.43,22.2,68.79,22.32ZM69,7.45a1.72,1.72,0,0,1,.46.37l.48.44q.36.4.17.6a.3.3,0,0,1-.39.09,2.54,2.54,0,0,1-.61-.52q-.5-.5-.5-.66Q68.57,7.45,69,7.45ZM71.8,25.28q.16,0,.48.36a4.6,4.6,0,0,0,.52.51q.36.31.2.49a.45.45,0,0,1-.33.18.58.58,0,0,1-.35-.21,4.37,4.37,0,0,1-.3-.32q-.54-.54-.54-.74T71.8,25.28ZM72.45,12l-.27-.33a1.92,1.92,0,0,1-.51-.62q-.13-.42.22-.42t.74.56l.29.33c.15.16.22.27.22.31q0,.4-.33.4A.48.48,0,0,1,72.45,12Zm2.75,14.6.54-.44a1.39,1.39,0,0,1,.51-.32q.31,0,.31.29t-.94,1q-.69.58-.69-.13Q74.93,26.85,75.2,26.62Zm0-14.54a3.38,3.38,0,0,0,.36-.3,2.63,2.63,0,0,0,.31-.32.5.5,0,0,1,.38-.21q.65,0,.22.54l-1,.94Q75,13,75,12.43A.46.46,0,0,1,75.24,12.08Zm3.45-3.46q.52-.53.66-.52.38,0,.38.31t-.52.71q-.53.51-.7.51-.34,0-.33-.36Q78.17,9.15,78.69,8.62Zm.12,15.19.44-.36a1.3,1.3,0,0,1,.46-.29q.38-.07.38.33,0,.16-.6.63l-.2.15-.16.12q-.69.6-.69-.11Q78.43,24.06,78.81,23.81Zm2.05,1.47a1.29,1.29,0,0,0,0-.31.66.66,0,0,1,0-.27.39.39,0,0,1,.31-.33q.38,0,.38,1a1.91,1.91,0,0,0,0,.32,1.41,1.41,0,0,1,0,.26q0,.38-.38.38T80.87,25.28Zm.33,3.53a2.42,2.42,0,0,1,.4.16q0,.4,0,1.17t-.42.59q-.29-.09-.28-.62t0-.94A.35.35,0,0,1,81.2,28.81Zm-.11,5.42q0-.18,0-.57t.26-.39q.42,0,.4.31a4.28,4.28,0,0,0,0,.74q0,.87-.31.87T81.09,34.24Zm.4,3.48a.35.35,0,0,1,.36.2l.07.85v.51q0,.36-.27.36-.42,0-.42-1.61Q81.22,37.72,81.49,37.72Zm.13-31.88L82,5.55a.93.93,0,0,1,.18-.13l.07-.07.09-.09q.67-.58.67.22,0,.13-.44.49L82,6.44q-.58.45-.58-.22A.54.54,0,0,1,81.63,5.84Zm.07,36.3q.4,0,.4,1t-.31.92q-.31,0-.31-.74l0-.45v-.49Q81.43,42.14,81.69,42.14Zm.36,4.44q.27,0,.38.74,0,.4.08.79t-.37.39q-.25,0-.29-.28a2.9,2.9,0,0,1,0-.39c0-.13,0-.28,0-.44s0-.32,0-.5A.28.28,0,0,1,82.05,46.58Zm1,4.29q.4,0,.41.21t.75.57q.33.18.2.41t-.27.23a1.93,1.93,0,0,1-.85-.42,2.75,2.75,0,0,1-.3-.3.66.66,0,0,1-.21-.37Q82.74,50.87,83,50.87ZM85.65,3.21a4.23,4.23,0,0,1,.85-.2q.36,0,.36.29a.33.33,0,0,1-.27.36l-.23.06-.21,0L85.4,4Q85,4.14,85,3.65,85,3.43,85.65,3.21Zm1.63,48.93a4.6,4.6,0,0,0,.89,0,.69.69,0,0,1,.29,0q.2,0,.33.37t-1.25.35h-.38a.28.28,0,0,1-.31-.31Q86.85,52.12,87.27,52.14ZM89,4.43q.27,0,.45.67.09.31.18.76t-.31.45q-.18,0-.54-1.16l-.11-.45Q88.68,4.43,89,4.43Zm.49,5.85-.09-1.23a.31.31,0,0,1,.36-.27q.31,0,.38,1t-.36.94Q89.51,10.69,89.51,10.28Zm.58,2.95q.27,0,.28.39t0,.5q0,1-.2,1a.29.29,0,0,1-.4-.22l-.09-1.29q0-.22.29-.38Zm0,4.46q.36,0,.4.69,0,.4,0,.45.07.78-.31.78t-.38-.56q0-.56,0-1C89.89,17.8,90,17.69,90.11,17.69Zm.2,4.42q.33-.16.33.78,0,1.16-.36,1.16T90,23.44q0-.61,0-1Q90,22.27,90.31,22.11ZM90.07,50.3a3.94,3.94,0,0,1,.07-.59,2.94,2.94,0,0,0,0-.62q0-.31.36-.31t.3.58l-.06,1a.38.38,0,0,1-.42.36Q90,50.69,90.07,50.3Zm.31-23.74q.33,0,.33.54v1.07q0,.38-.32.32t-.32-.28V26.87A.28.28,0,0,1,90.38,26.56ZM90.43,31q.32,0,.32.27v1.41a.24.24,0,0,1-.22.25.32.32,0,0,1-.33-.09q-.13-.13-.11-.68t0-.88Q90.11,31,90.43,31Zm.07,8.91a.31.31,0,0,1,.35.36v1.18q-.09.38-.38.38t-.32-.57q0-.57,0-1A.31.31,0,0,1,90.5,39.91Zm0-4.45q.32,0,.32.35V37q0,.36-.32.36T90.15,37V35.71C90.15,35.56,90.26,35.48,90.48,35.45Zm0,8.9q.32,0,.32.27v1.27a1,1,0,0,1-.09.29q-.56.47-.56-.2V44.66Q90.2,44.3,90.52,44.35Z"/><path class="cls-1" d="M93.57,9.19q0-.34.4-.42t.27,1a2.07,2.07,0,0,0,0,.64q0,.3-.3.3a.32.32,0,0,1-.33-.27Zm.47,6a.29.29,0,0,1-.36-.13.55.55,0,0,1-.08-.42,2.24,2.24,0,0,0,0-.49.9.9,0,0,1,0-.13.82.82,0,0,1,0-.13v-.25a.36.36,0,0,1,.18-.29q.51-.31.51.33V14.9C94.26,15,94.19,15.11,94,15.15Zm-.27,3.5q0-.13,0-.55t.27-.41q.42,0,.39.31a2.66,2.66,0,0,0,0,.71q.13.89-.33.89Q93.77,19.61,93.77,18.65Zm.42,3.47a.32.32,0,0,1,.36.17,1.61,1.61,0,0,1,0,.38l0,1q0,.31-.25.33a.34.34,0,0,1-.36-.18,1.68,1.68,0,0,1-.07-.66v-.77Q93.95,22.16,94.19,22.13ZM94.57,5l0,0,0,0a0,0,0,0,1,0,0q.4-.42.57-.26t.17.23a.61.61,0,0,1-.27.45,3.68,3.68,0,0,0-.45.74q-.13.29-.39.22A.3.3,0,0,1,94,6,1.7,1.7,0,0,1,94.57,5Zm-.29,23.31a1.87,1.87,0,0,1-.11-.85q0-.91.31-.92t.33.6l0,.4q0,.92-.38.92A.22.22,0,0,1,94.28,28.32ZM94.7,31q.3,0,.35.37l.07,1.18q0,.36-.25.36-.4,0-.42-.58l0-1A.3.3,0,0,1,94.7,31Zm0,6q0-.37,0-.64-.07-.92.29-.92t.35.41q0,.41,0,.55.07,1-.36,1Q94.69,37.34,94.69,37Zm.27,4q0-.18,0-.29c0-.07,0-.16,0-.27q-.07-.49.3-.51t.37.54a6.94,6.94,0,0,0,.06,1q.06.36-.32.36T95,40.93Zm.63,3.35q.27,0,.38.94l.07.58q0,.4-.25.4t-.45-.69l-.07-1Q95.27,44.28,95.58,44.28Zm.07,3.66q-.09-.47-.16-1t.33-.55q.27,0,.31.36t.09.6a3.61,3.61,0,0,0,.07.58q.07.38-.29.38T95.65,47.94ZM96.52,6.6a2.11,2.11,0,0,1,1.71-.93q1,0,1.84,0h2.23l.56,0,.54,0h1.14q1.14,0,2,.08a2.48,2.48,0,0,1,1.57.93,2.67,2.67,0,0,1,.65,1.83,2.48,2.48,0,0,1-.8,1.82,2.47,2.47,0,0,1-1.76.79l-4.8,0,.18,3.93a9.23,9.23,0,0,1,0,1q0,.5,0,1l.16,3a5.24,5.24,0,0,0,0,.6,2.58,2.58,0,0,1,0,.36q0,.69,0,1l.07,2a.78.78,0,0,0,0,.23.76.76,0,0,1,0,.23l0,1.45a4.86,4.86,0,0,0,0,.51,4,4,0,0,1,0,.45h4.93a3.17,3.17,0,0,1,2.08.71l.18.18.07.1.09.08a2.45,2.45,0,0,1,.27,2.88,2.43,2.43,0,0,1-2.28,1.5h-5.11q0,.8,0,1.56t0,1.54a2.62,2.62,0,0,0,0,.4,2.31,2.31,0,0,1,0,.36l0,1.52a2.62,2.62,0,0,0,0,.4,2.13,2.13,0,0,1,0,.33q0,.45,0,.79t0,.75a2.7,2.7,0,0,0,0,.4,2.06,2.06,0,0,1,0,.33v.4a3,3,0,0,0,0,.38l.07,1.52v.39a2.92,2.92,0,0,0,0,.37,2.58,2.58,0,0,0,0,.36,2.71,2.71,0,0,1,0,.38l.56,0,.63,0H105q1.29,0,2.15,0a2.65,2.65,0,0,1,1.71.89,2.55,2.55,0,0,1,.51,2.79A2.43,2.43,0,0,1,106.83,50l-5.36,0q-1,0-1.71-.07a2.81,2.81,0,0,1-1.31-.47,2.76,2.76,0,0,1-1.14-2.48q0-.54,0-1.31t0-1.31l-.09-1.7a2.86,2.86,0,0,1,0-.45q0-.25,0-.47L97.05,40q0-.47,0-1.72a3.69,3.69,0,0,0,0-.4,4.23,4.23,0,0,1,0-.47,3.11,3.11,0,0,0,0-.42,3,3,0,0,1,0-.4q0-.67,0-1.38t0-1.27a3.42,3.42,0,0,0,0-.42,3.31,3.31,0,0,1,0-.4q0-.47,0-.86t0-.86a5.5,5.5,0,0,1,0-.87,2.51,2.51,0,0,0,0-.44,2.23,2.23,0,0,1,0-.39q0-.47,0-.89t0-.89a2.37,2.37,0,0,0,0-.41,1.81,1.81,0,0,1,0-.46q0-.51-.06-1.19t-.06-1.35a3.52,3.52,0,0,0,0-.42,3.65,3.65,0,0,1,0-.45l-.27-6.9a5.23,5.23,0,0,0,0-.83l0-1.79a3.46,3.46,0,0,0,0-.44,3.47,3.47,0,0,1,0-.44q0-.54,0-1.28t0-1.28a3.2,3.2,0,0,0,0-.42,3.11,3.11,0,0,1,0-.42V8.23A2.53,2.53,0,0,1,96.52,6.6Zm.71,43.89.47.27q1,.54,1,.51.13.42-.25.42a2.59,2.59,0,0,1-1-.33q-.58-.25-.58-.54T97.23,50.49ZM98.41,3.56l.54-.09h.4q.31.09.31.31t-.74.38a3.8,3.8,0,0,0-.75.09q-.44.09-.44-.31T98.41,3.56Zm3.17,48a2.85,2.85,0,0,0,.58,0q.91,0,.92.38t-.38.31h-.56a1.46,1.46,0,0,0-.31,0,1.25,1.25,0,0,1-.29,0,.37.37,0,0,1-.38-.4Q101.16,51.47,101.58,51.51Zm.94-48h0l.29,0q1.23.11,1.23.42t-1.25.22q-.67-.07-.67-.42T102.52,3.47ZM103.75,17a4,4,0,0,1,.12-.57q.1-.37.3-.37.42,0,.42.31,0-.09-.13.45Q104.15,18,104,18,103.53,18,103.75,17Zm.33,3.46q.25,0,.42.71.07.27.2.71t-.31.45q-.22,0-.47-.69a3.19,3.19,0,0,1-.16-.92C103.77,20.57,103.88,20.48,104.08,20.48Zm.83,14.62a.79.79,0,0,1,.2-.13.33.33,0,0,1,.48.11q.19.27-.23.51a1.25,1.25,0,0,0-.54.6q-.2.4-.45.27t-.25-.27A1.4,1.4,0,0,1,104.91,35.11Zm-.09,3.77q.18,0,.54.65l.27.36a1,1,0,0,1,.2.33q0,.58-.45.36a2.41,2.41,0,0,1-.51-.6,1.67,1.67,0,0,1-.38-.8Q104.49,38.88,104.82,38.88Zm1.09,12.7,1.23-.09a.39.39,0,0,1,.38.36q.07.33-.6.33l-.58,0H106q-.38,0-.38-.27A.34.34,0,0,1,105.91,51.58Zm.54-38.2.4-.2a1.06,1.06,0,0,1,.42-.16q.16,0,.31.26t-.36.46a4.61,4.61,0,0,0-.61.32,1.52,1.52,0,0,1-.41.21q-.38.07-.38-.33Q105.83,13.74,106.45,13.39Zm.84,11.3a4.94,4.94,0,0,1-.57-.18q-.6-.16-.46-.42t.28-.27a9.42,9.42,0,0,1,.94.22q.67.2.67.38,0,.4-.31.4A4.27,4.27,0,0,1,107.29,24.68Zm-.21-20.45.71.2q.62.22.63.47,0,.45-.44.3l-.77-.26q-.67-.18-.67-.42Q106.54,4.08,107.08,4.23Zm1.56,39.16-.56-.45a2.42,2.42,0,0,1-.47-.42q-.29-.47.31-.47.16,0,.74.49t.54.69Q109.2,43.84,108.64,43.39ZM108.48,34a3.38,3.38,0,0,0,.6-.26l.38-.19q.38-.09.38.25t-.67.63q-1.12.54-1.12-.11Q108.06,34.21,108.48,34ZM110,11.63a1.86,1.86,0,0,0,.54-.7q.22-.4.57-.21t-.32,1.06q-.47.6-.73.52a.32.32,0,0,1-.26-.32A.36.36,0,0,1,110,11.63Zm.27,38.88h0a1.12,1.12,0,0,0,.32-.47.34.34,0,0,1,.19-.25.28.28,0,0,1,.45,0,.44.44,0,0,1,0,.47,3.3,3.3,0,0,1-.6.78.83.83,0,0,1-.2.16q-.56.38-.56-.27S110,50.76,110.27,50.51Zm.29-24.82q.22,0,.77.87t-.12.87-.51-.67a4.05,4.05,0,0,1-.45-.8Q110.25,25.69,110.56,25.69Zm.11-19.33q.31,0,.65.92t-.16.92q-.27,0-.49-.71-.07-.16-.2-.4a.9.9,0,0,1-.13-.4Q110.33,6.35,110.67,6.35Zm.09,40.43-.31-1.12a.36.36,0,0,1,.27-.33q.27-.11.42.38t.3,1q.15.5-.37.5Q110.85,47.21,110.76,46.78Zm.6-16.65a.3.3,0,0,1,.31-.25q.22,0,.31.31v.38a5.05,5.05,0,0,1-.2.85q-.13.47-.4.38c-.18-.06-.27-.16-.27-.31Z"/><path class="cls-1" d="M111.83,8a5.49,5.49,0,0,1,.07-.8q.09-.49.38-.49t.3.4l-.08.56q0,1-.36,1t-.31-.29Zm1.38,2.9a1.1,1.1,0,0,1,.28.21,2.16,2.16,0,0,0,.66.35q.47.2.38.45a.32.32,0,0,1-.31.25,2.77,2.77,0,0,1-.77-.29q-.61-.29-.61-.71T113.21,10.91Zm.84-7.05a3.93,3.93,0,0,1,.86-.2.32.32,0,0,1,.33.29q.07.29-.4.38a4,4,0,0,0-1,.35q-.4.21-.4-.37Q113.39,4.06,114.05,3.85Zm1,6.76a2.51,2.51,0,0,1-1.14-3,2.57,2.57,0,0,1,2.59-2q.83,0,1.75,0l1.8,0,7.14,0,7.17,0a2.61,2.61,0,0,1,1.18.27,4.94,4.94,0,0,1,.71.54,2.66,2.66,0,0,1,.76,1.8,2.49,2.49,0,0,1-.56,1.77,2.68,2.68,0,0,1-1.21.87,3.76,3.76,0,0,1-1.21.16l-.69,0-.65,0h-4.11q-.07.67-.08,1.64t0,1.64a1.52,1.52,0,0,1,0,.3,1.52,1.52,0,0,0,0,.3l-.09,4.58a1.35,1.35,0,0,1,0,.29,1.31,1.31,0,0,0,0,.29V21.4l-.18,6.47q0,.36,0,.65t0,.65l-.07,1.27a9.35,9.35,0,0,1,0,1.32l-.13,3.88a9.35,9.35,0,0,1,0,1.32,10.86,10.86,0,0,0,0,1.29q0,.34,0,.64t0,.66l0,1.27q0,.33,0,.67a3.7,3.7,0,0,1,0,.65L127.66,46a16.12,16.12,0,0,1-.08,1.67,2.4,2.4,0,0,1-.77,1.43,2.71,2.71,0,0,1-4.6-1.87q0-.67,0-1.28t0-1.33a1.91,1.91,0,0,1,0-.32c0-.08,0-.19,0-.32l0-1.92q0-.69,0-1.31t0-1.35a1.71,1.71,0,0,1,0-.31,1.66,1.66,0,0,0,0-.31l0-1.92q0-.67,0-1.28t0-1.33a1.66,1.66,0,0,1,0-.31,1.71,1.71,0,0,0,0-.31l0-1.92q0-.69,0-1.32t0-1.34a1.7,1.7,0,0,1,0-.31,1.83,1.83,0,0,0,0-.33l0-1.92q0-.67,0-1.28t0-1.33a1.71,1.71,0,0,1,0-.31,1.66,1.66,0,0,0,0-.31l0-1.92q0-.67,0-1.29t0-1.32a1.66,1.66,0,0,1,0-.31,1.88,1.88,0,0,0,0-.33l0-1.92q0-.67,0-1.28t0-1.31a1.7,1.7,0,0,1,0-.31,1.87,1.87,0,0,0,0-.33l.07-1.92-1.26,0-1.26,0h-4.22A2.47,2.47,0,0,1,115.07,10.62ZM117.38,12l.64.07q.92.13.92.45t-.4.32l-.58-.12q-.94-.09-.94-.42T117.38,12Zm.77-8.62h1.21q.31,0,.31.32t-.31.32h-1.29q-.31,0-.31-.33T118.15,3.43Zm1.71,11.35q.28-.15.37.39a4.79,4.79,0,0,1,0,.6q0,.91-.31.92t-.31-.3V16l0-1S119.67,14.88,119.86,14.78Zm.21,4.41a.28.28,0,0,1,.31.31v.42a5.44,5.44,0,0,0,.07.71q.07.47-.33.47t-.36-1.63Q119.75,19.19,120.07,19.19Zm0,26.68q.3,0,.35.31t0,1.27q0,.38,0,.35s0,0,0,.17a5.79,5.79,0,0,1,0,.63q0,.87-.33.87t-.31-.62a4.08,4.08,0,0,0,0-.44,4.71,4.71,0,0,1,0-.48.55.55,0,0,1,0-.16.45.45,0,0,0,0-.13l0-1.41Q119.8,45.89,120.1,45.87Zm.1-22.21q.31-.07.33.4,0,.89,0,1.27t-.42.25q-.31-.09-.29-.62t0-1C119.89,23.78,120,23.7,120.2,23.65Zm-.33,19.29q0-.6,0-1.06t.38-.46q.33,0,.31.42c0,.28,0,.46,0,.54q0,1-.42,1Q119.87,43.34,119.87,42.94Zm.45-14.82q.27,0,.31.36t0,.9q0,.66-.31.66T120,29.5q0-.54,0-1.07Q120,28.12,120.31,28.12Zm0,8.86q.38,0,.32.54t-.06.74q0,.65-.31.65t-.33-.31V37.34Q120,37,120.36,37Zm0-4.43q.32-.06.32.32v1.27q0,.36-.32.32a.33.33,0,0,1-.32-.37V32.83Q120,32.61,120.35,32.55Zm1.51,18.7a2.3,2.3,0,0,1,.47.18q1,.58,1,.74,0,.31-.33.31a1.47,1.47,0,0,1-.41-.15,1.69,1.69,0,0,1-.39-.21q-.65-.29-.65-.6A.24.24,0,0,1,121.85,51.25Zm.33-47.47a.31.31,0,0,1,.36-.35h1.09q.47,0,.47.35t-.38.35h-1Q122.19,4.12,122.19,3.78Zm5,48.92q.28-.11.41.2t-.19.4a1.56,1.56,0,0,1-.59.13h-.65q-.45,0-.45-.36c0-.22.12-.32.35-.3l.57,0A1.46,1.46,0,0,0,127.2,52.7Zm0-49.19h.89q.49,0,.49.35a.3.3,0,0,1-.33.35l-1,0q-.6,0-.6-.42T127.17,3.51ZM128.54,50q.06-.25.1-.49.13-.71.38-.71t.36.4l-.22,1.16q-.13.47-.4.33t-.27-.25A2,2,0,0,1,128.54,50Zm.55-4a1.78,1.78,0,0,1,0-.37v-.8q0-.42.4-.42t.31.31c0,.21,0,.33,0,.38q0,.38-.06.8t-.37.42Q129.06,46.27,129.09,45.94Zm.31-5.08q0-1,.36-1t.33.83q0,.4,0,.45,0,.65-.38.65T129.4,40.87Zm.18-4v-.27l.07-.87c.06-.13.14-.2.25-.2s.38.35.38,1-.12,1-.35.87-.35-.2-.35-.33Zm.22-4.8V31.4q0-.38.36-.37t.33.41a1.55,1.55,0,0,1,0,.28,1.91,1.91,0,0,0,0,.32q0,.91-.36.92T129.8,32Zm.22-4.49v-.31a2.32,2.32,0,0,1,0-.33q.07-.31.33-.3a.34.34,0,0,1,.33.3c0,.06,0,.26,0,.61s0,.57,0,.66q0,.4-.35.35t-.3-.3A3.69,3.69,0,0,1,130,27.54Zm1-5-.11,1.23q-.07.33-.36.32a.3.3,0,0,1-.31-.32.66.66,0,0,1,0-.27,1.51,1.51,0,0,0,0-.31q0-1,.4-1T131.05,22.54Zm-.31-3.28a1.45,1.45,0,0,1,0-.26q0-.17.06-.35.11-.91.45-.92t.31.4l-.18,1.18q-.09.33-.36.33T130.74,19.26Zm.67-15.6h1q.59,0,.59.35t-.51.33a4.08,4.08,0,0,1-.54,0l-.33,0q-.54,0-.54-.33A.28.28,0,0,1,131.41,3.65Zm.71,10.51q.31-.58.56-.58.49,0,.29.39l-.22.44q-.18.33-.25.49-.25.56-.49.45a.37.37,0,0,1-.25-.36A1.72,1.72,0,0,1,132.12,14.17Zm3.17-1.7,1,0q.74,0,.74.33t-1,.31q-.87,0-.87-.45A1.54,1.54,0,0,1,135.29,12.47Zm1.21-8.55q.94.11.94.42t-.38.3l-.54-.08q-1-.09-1-.36T136.5,3.92Zm2.86,7.1q.33-1,.45-1,.49-.11.36.48t-.18.75q-.33.85-.59.64a.56.56,0,0,1-.26-.39A3.22,3.22,0,0,1,139.35,11Zm.15-5.39q.28-.23.52.84.2.83,0,1a.28.28,0,0,1-.45,0,2.15,2.15,0,0,1-.23-.78q-.15-.71-.15-.78A1.73,1.73,0,0,1,139.5,5.63Z"/><path class="cls-1" d="M34.29,15.2a12.65,12.65,0,0,1,4.55-.74H39a6.29,6.29,0,0,1,.91.13,10.58,10.58,0,0,1,.78-1.51,2.17,2.17,0,0,1,1.52-1,2.92,2.92,0,0,0,.92-.31,1.84,1.84,0,0,1,.56-.09l.34,0A24.32,24.32,0,0,1,49.51,9a12.16,12.16,0,0,0-1-1,5.9,5.9,0,0,0-4-1.51q-.58,0-1.21,0a3.24,3.24,0,0,0-1.12.27.57.57,0,0,0-.16.09.28.28,0,0,1-.16.07l-1.23.22a7.15,7.15,0,0,0-1.43.51A7.43,7.43,0,0,0,38,8.48a9.06,9.06,0,0,0-1.79,2.1,12.32,12.32,0,0,0-1,2q-.42,1-.76,2.1C34.4,14.82,34.34,15,34.29,15.2Z"/><path class="cls-1" d="M31.27,21.62q.31,0,.31-.35a2.14,2.14,0,0,1,0-.52q0-.18,0-.55a.49.49,0,0,0,0-.12l-.41-.17a1.08,1.08,0,0,0-.22.81Q31,21.62,31.27,21.62Z"/><path class="cls-1" d="M35.53,24.73c-1.09-1.36-1.18-2.16-.93-2.92l-.07-.07c-.18-.15-.36-.28-.53-.41a8.75,8.75,0,0,0-.77-.5c0,.09,0,.21,0,.3L33,22.94a1.47,1.47,0,0,0,0,.23v.21c-.05.65-.09,1.4-.1,2.23l.2-.22A2.61,2.61,0,0,1,35.53,24.73Z"/><path class="cls-1" d="M46.65,32.9q0,.25-.06.45a2.87,2.87,0,0,0,0,.47c0,.16.1.25.31.25s.31-.28.36-.85a1.51,1.51,0,0,0,0-.29q.09-.65-.27-.65T46.65,32.9Z"/><path class="cls-1" d="M34,9.55q.21.07.39-.22l.09-.16.11-.2q.42-.8.33-1-.27-.29-.5.07l-.26.4a2.06,2.06,0,0,0-.38.76A.29.29,0,0,0,34,9.55Z"/><path class="cls-1" d="M39.93,31q.29,0,.25-.45t-.07-.71q-.11-.65-.4-.65c-.18,0-.26.13-.26.38a2.85,2.85,0,0,0,.06.56Q39.64,31,39.93,31Z"/><path class="cls-1" d="M45.7,38.07q.26.1.64-.84,0-.11.17-.5t-.28-.39a.29.29,0,0,0-.29.25l-.29.71a3.15,3.15,0,0,1-.2.38A.38.38,0,0,0,45.7,38.07Z"/><path class="cls-1" d="M42.2,38.79a1.57,1.57,0,0,0,1.18.76.32.32,0,0,0,.31-.23q.09-.23-.27-.39A1.71,1.71,0,0,1,42.34,38q-.22-.61-.49-.7t-.38.22a1.5,1.5,0,0,0,.31.71A2.39,2.39,0,0,0,42.2,38.79Z"/><path class="cls-1" d="M40.37,34.84c.06.22.17.31.35.27S41,35,41,34.84A6,6,0,0,0,40.8,34q-.18-.65-.45-.65t-.27.25a2.78,2.78,0,0,0,.11.63C40.27,34.5,40.33,34.71,40.37,34.84Z"/><path class="cls-1" d="M31.09,25.8a.32.32,0,0,0,.22-.11,1.08,1.08,0,0,0,.11-.64V24.3q0-.31-.38-.31t-.27.67v.76Q30.84,25.8,31.09,25.8Z"/><path class="cls-1" d="M52.17,8.35,52,8.16a1.33,1.33,0,0,0-.31-.38q-.42-.16-.42.22a1.49,1.49,0,0,0,.21.47Z"/><path class="cls-1" d="M54.53,12.72a.61.61,0,0,0-.06-.22c0,.17-.09.36-.14.54C54.45,13,54.53,12.91,54.53,12.72Z"/><path class="cls-1" d="M36.73,6.38a1,1,0,0,0,.32-.18A3.54,3.54,0,0,1,37.45,6q.62-.36.63-.56c0-.18-.1-.27-.31-.27a.81.81,0,0,0-.4.16l-.18.11L37,5.48l-.33.22c-.16.1-.25.21-.25.31S36.54,6.38,36.73,6.38Z"/><path class="cls-1" d="M56.47,21q.4,0,.32-.47t-.15-1c0-.3-.16-.42-.36-.38s-.29.15-.29.31l.16,1.09Q56.2,21,56.47,21Z"/><path class="cls-1" d="M55.24,16.29q.22.67.45.67.4,0,.26-.46t-.19-.64-.16-.47q-.13-.38-.47-.11a.2.2,0,0,0-.11.18,2.58,2.58,0,0,0,.09.4A2.89,2.89,0,0,0,55.24,16.29Z"/><path class="cls-1" d="M41.18,4.77q.89-.09.92-.38t-.36-.3l-.49,0-.58.1q-.36.06-.36.26Q40.31,4.93,41.18,4.77Z"/><path class="cls-1" d="M49.73,6.11q.09,0,.23-.19t-.19-.46l-.16-.12-.13-.12-.56-.36q-.47-.31-.47.22l.85.8A.69.69,0,0,0,49.73,6.11Z"/><path class="cls-1" d="M45,4.47h.52q.69.09.69-.29t-.71-.36h-.78a.29.29,0,0,0-.32.22.28.28,0,0,0,.12.33A1.17,1.17,0,0,0,45,4.47Z"/><path class="cls-1" d="M54.06,25.75l-.38-5.4A31.42,31.42,0,0,0,53,16.63a20.68,20.68,0,0,1-4.19,6.14h0c0,.14,0,.27,0,.41q0,.67.07,1l0,5.33q0,.49-.16,2.27T48.59,34q-.07.33-.1.66t-.08.59L48,37.63a14.59,14.59,0,0,1-.69,2.14A6.67,6.67,0,0,1,46,41.6q-.87,1-1.21,1.25a4.82,4.82,0,0,1-1.7,1q-.76.21-1.7-1.06A14.56,14.56,0,0,1,39,36.6q-.66-3.75-.88-6.61,0-.22,0-.55a2.42,2.42,0,0,1-.39.52,7.55,7.55,0,0,1-4.56,1.76l.05.61q.07.8.22,1.81a37.36,37.36,0,0,0,1,4.91A31.73,31.73,0,0,0,36,43.55a7.88,7.88,0,0,0,.49.95,10.32,10.32,0,0,0,.58.93,11.12,11.12,0,0,0,1.38,1.63,6.83,6.83,0,0,0,1.89,1.35,5,5,0,0,0,2.24.55,7.27,7.27,0,0,0,1.88-.2A8.67,8.67,0,0,0,46.22,48a6.53,6.53,0,0,0,1.35-.87q.61-.51,1.22-1l.13-.11.16-.13,1.41-1.63A14.14,14.14,0,0,0,52,41.65a16.35,16.35,0,0,0,1-3.14q.38-1.73.63-3.31T54,31.39q.12-2.13.12-3.81,0-.47,0-.92T54.06,25.75Z"/><path class="cls-1" d="M51.4,47.36a4.54,4.54,0,0,0-.62.51q-.54.47-.54.65t.36.29.61-.48q.5-.48.5-.68T51.4,47.36Z"/><path class="cls-1" d="M43.83,51.63a2.13,2.13,0,0,1-.65,0q-.31,0-.31.3c0,.18.1.28.31.29h.65q.85,0,.85-.33T43.83,51.63Z"/><path class="cls-1" d="M53.7,43.86q-.22-.11-.38.22l-.54,1.14a.9.9,0,0,0,.17.31q.17.25.52-.38a2.43,2.43,0,0,0,.26-.49,2.13,2.13,0,0,0,.19-.51A.33.33,0,0,0,53.7,43.86Z"/><path class="cls-1" d="M47.85,50.2l-.71.4q-.27.11-.27.27,0,.54.41.33l.61-.31.42-.28q.31-.21.11-.48T47.85,50.2Z"/><path class="cls-1" d="M55,39.91q-.27,0-.42.6,0,.13-.13.46a2.39,2.39,0,0,0-.09.39q0,.29.38.29.13,0,.36-.63,0-.2.18-.66T55,39.91Z"/><path class="cls-1" d="M56.76,27.54q-.33,0-.33.6,0,.33-.08.77t.32.44q.27,0,.31-.47,0-.29,0-.81T56.76,27.54Z"/><path class="cls-1" d="M56.75,23.4q-.32.08-.32.26l0,1.32q.13.47.51.13a.54.54,0,0,0,.09-.22v-.94Q57.07,23.32,56.75,23.4Z"/><path class="cls-1" d="M55.82,35.82q-.25,0-.38.67a8.31,8.31,0,0,0-.13.87q0,.16.23.26t.37-.21a4.22,4.22,0,0,0,.12-.65q.08-.54.08-.67C56.11,35.91,56,35.82,55.82,35.82Z"/><path class="cls-1" d="M56.42,31.71q-.31,0-.4.89t.22.89q.29,0,.4-.87l.07-.55Q56.76,31.71,56.42,31.71Z"/><path class="cls-1" d="M31.85,36.42q-.31,0-.31.33a1.37,1.37,0,0,0,0,.28l.07.28q.16.92.47.92T32.4,38l-.18-.85Q32.09,36.42,31.85,36.42Z"/><path class="cls-1" d="M31.62,33q-.11-.65-.31-.65-.45,0-.29.87t.36.92Q31.76,34.1,31.62,33Z"/><path class="cls-1" d="M31.34,29.8a4.86,4.86,0,0,1,.06-.69s0,0,0,0q-.11-.94-.31-.94a.28.28,0,0,0-.31.31v1.09q.07.4.31.4A.29.29,0,0,0,31.34,29.8Z"/><path class="cls-1" d="M32.15,16.12c0-.29-.05-.43-.31-.43s-.34.29-.4.85C31.67,16.39,31.9,16.26,32.15,16.12Z"/><path class="cls-1" d="M32.49,13.41q.25,0,.54-.85a1.35,1.35,0,0,1,.08-.25c0-.09.07-.18.1-.27a.31.31,0,0,0-.22-.39q-.29-.12-.42.3a1.35,1.35,0,0,0-.09.28,1.83,1.83,0,0,1-.07.26,1.57,1.57,0,0,0-.18.51Q32.16,13.41,32.49,13.41Z"/><path class="cls-1" d="M40.11,50.73a5.92,5.92,0,0,1-.6-.33q-.54-.31-.54.13,0,.29.6.6l.37.2a1.36,1.36,0,0,0,.37.16q.58,0,.27-.47A1.7,1.7,0,0,0,40.11,50.73Z"/><path class="cls-1" d="M36.91,48.3l-.17-.2a1.06,1.06,0,0,1-.15-.22.56.56,0,0,0-.47-.33q-.33,0-.2.38a2.22,2.22,0,0,0,.42.68q.38.48.51.48.47,0,.36-.36A1.5,1.5,0,0,0,36.91,48.3Z"/><path class="cls-1" d="M33.3,40.84q-.18-.6-.56-.31c-.07.07-.11.13-.11.18s.08.26.23.75.31.73.46.73q.49,0,.31-.44T33.3,40.84Z"/><path class="cls-1" d="M34.59,44.28q-.29,0-.29.25a1.41,1.41,0,0,0,.18.6q.18.36.31.58a.37.37,0,0,0,.38.25c.16,0,.25-.12.25-.31a2.6,2.6,0,0,0-.33-.74Q34.79,44.28,34.59,44.28Z"/><path class="cls-2" d="M37.34,25.7A3,3,0,0,1,37.69,30c-1.18,1.17-4.72,2.48-5.9,1.31s.14-4.7,1.31-5.87A3,3,0,0,1,37.34,25.7Z"/><path class="cls-3" d="M48.2,23.09c1.77,3.67-2.55,12.22-4.55,9.8-.81-1-.76-2.54-2.87-4.56a2.09,2.09,0,0,0,1.68-.68C44.54,26,48.2,23.11,48.2,23.09Z"/><path class="cls-3" d="M40.76,14.87c-4-1.8-13.16,2.49-10.54,4.51,1.06.82,2.75.77,4.93,2.91a2,2,0,0,1,.73-1.68C37.59,18.53,40.74,14.87,40.76,14.87Z"/><path class="cls-4" d="M39,14.46h-.17c-.87,1.06-3,3.69-4.3,5.34a2.47,2.47,0,0,0-.71,1.41,9.46,9.46,0,0,1,.79.61,2.62,2.62,0,0,1,.67-1.22C37,18.48,40,14.77,40,14.77A4.23,4.23,0,0,0,39,14.46Z"/><path class="cls-4" d="M48.22,23.15c-.52.44-3.8,3.13-5.75,4.66a2.39,2.39,0,0,1-1.5.72,9.24,9.24,0,0,1,.73.82,2.34,2.34,0,0,0,1.57-.72c1.63-1.29,4.19-3.37,5.28-4.28A4.25,4.25,0,0,0,48.22,23.15Z"/><path class="cls-5" d="M34.55,24.69a5.86,5.86,0,0,0,3.83,3.83,3.49,3.49,0,0,0-1-2.82A3.38,3.38,0,0,0,34.55,24.69Z"/><path class="cls-6" d="M54.79,8.27c.59.56-.28,8.86-6,14.5a47.16,47.16,0,0,1-6.4,5.33c-1.54.7-2.57,1.08-5.62-2S34.35,22.26,35,20.81a49.11,49.11,0,0,1,5.41-6.4C46.1,8.78,54.17,7.72,54.79,8.27Z"/><path class="cls-7" d="M47.7,15.35a3.14,3.14,0,1,1-4.43,0A3.14,3.14,0,0,1,47.7,15.35Z"/><path class="cls-8" d="M46.6,16.46a1.56,1.56,0,0,1,0,2.22,1.59,1.59,0,0,1-2.23,0,1.56,1.56,0,0,1,0-2.22A1.59,1.59,0,0,1,46.6,16.46Z"/><path class="cls-1" d="M31.4,29.08q-.11-.94-.31-.94a.28.28,0,0,0-.31.31v1.09q.07.4.31.4Q31.53,30,31.4,29.08Z"/><path class="cls-1" d="M31.09,25.8a.32.32,0,0,0,.22-.11,1.08,1.08,0,0,0,.11-.64V24.3q0-.31-.38-.31t-.27.67v.76Q30.84,25.8,31.09,25.8Z"/><path class="cls-1" d="M31.85,36.42q-.31,0-.31.33a1.37,1.37,0,0,0,0,.28l.07.28q.16.92.47.92T32.4,38l-.18-.85Q32.09,36.42,31.85,36.42Z"/><path class="cls-1" d="M31.62,33q-.11-.65-.31-.65-.45,0-.29.87t.36.92Q31.76,34.1,31.62,33Z"/><path class="cls-1" d="M33.11,12.31c0-.09.07-.18.1-.27a.31.31,0,0,0-.22-.39q-.29-.12-.42.3a1.35,1.35,0,0,0-.09.28,1.83,1.83,0,0,1-.07.26,1.57,1.57,0,0,0-.18.51q-.07.4.27.4t.54-.85A1.35,1.35,0,0,1,33.11,12.31Z"/><path class="cls-1" d="M40.11,50.73a5.92,5.92,0,0,1-.6-.33q-.54-.31-.54.13,0,.29.6.6l.37.2a1.36,1.36,0,0,0,.37.16q.58,0,.27-.47A1.7,1.7,0,0,0,40.11,50.73Z"/><path class="cls-1" d="M43.83,51.63a2.13,2.13,0,0,1-.65,0q-.31,0-.31.3c0,.18.1.28.31.29h.65q.85,0,.85-.33T43.83,51.63Z"/><path class="cls-1" d="M34.59,44.28q-.29,0-.29.25a1.41,1.41,0,0,0,.18.6q.18.36.31.58a.37.37,0,0,0,.38.25c.16,0,.25-.12.25-.31a2.6,2.6,0,0,0-.33-.74Q34.79,44.28,34.59,44.28Z"/><path class="cls-1" d="M36.91,48.3l-.17-.2a1.06,1.06,0,0,1-.15-.22.56.56,0,0,0-.47-.33q-.33,0-.2.38a2.22,2.22,0,0,0,.42.68q.38.48.51.48.47,0,.36-.36A1.5,1.5,0,0,0,36.91,48.3Z"/><path class="cls-1" d="M33.3,40.84q-.18-.6-.56-.31c-.07.07-.11.13-.11.18s.08.26.23.75.31.73.46.73q.49,0,.31-.44T33.3,40.84Z"/><path class="cls-1" d="M47.85,50.2l-.71.4q-.27.11-.27.27,0,.54.41.33l.61-.31.42-.28q.31-.21.11-.48T47.85,50.2Z"/><path class="cls-1" d="M49.73,6.11q.09,0,.23-.19t-.19-.46l-.16-.12-.13-.12-.56-.36q-.47-.31-.47.22l.85.8A.69.69,0,0,0,49.73,6.11Z"/><path class="cls-1" d="M55.24,16.29q.22.67.45.67.4,0,.26-.46t-.19-.64-.16-.47q-.13-.38-.47-.11a.2.2,0,0,0-.11.18,2.58,2.58,0,0,0,.09.4A2.89,2.89,0,0,0,55.24,16.29Z"/><path class="cls-1" d="M31.27,21.62q.31,0,.31-.35a2.14,2.14,0,0,1,0-.52q0-.18,0-.55t-.22-.37q-.42,0-.42.89T31.27,21.62Z"/><path class="cls-1" d="M45,4.47h.52q.69.09.69-.29t-.71-.36h-.78a.29.29,0,0,0-.32.22.28.28,0,0,0,.12.33A1.17,1.17,0,0,0,45,4.47Z"/><path class="cls-1" d="M56.47,21q.4,0,.32-.47t-.15-1c0-.3-.16-.42-.36-.38s-.29.15-.29.31l.16,1.09Q56.2,21,56.47,21Z"/><path class="cls-1" d="M41.18,4.77q.89-.09.92-.38t-.36-.3l-.49,0-.58.1q-.36.06-.36.26Q40.31,4.93,41.18,4.77Z"/><path class="cls-1" d="M34,9.55q.21.07.39-.22l.09-.16.11-.2q.42-.8.33-1-.27-.29-.5.07l-.26.4a2.06,2.06,0,0,0-.38.76A.29.29,0,0,0,34,9.55Z"/><path class="cls-1" d="M31.64,17.47q.29,0,.38-.62,0-.2.12-.68t-.3-.48q-.31,0-.4.87T31.64,17.47Z"/><path class="cls-1" d="M36.73,6.38a1,1,0,0,0,.32-.18A3.54,3.54,0,0,1,37.45,6q.62-.36.63-.56c0-.18-.1-.27-.31-.27a.81.81,0,0,0-.4.16l-.18.11L37,5.48l-.33.22c-.16.1-.25.21-.25.31S36.54,6.38,36.73,6.38Z"/><path class="cls-1" d="M55,39.91q-.27,0-.42.6,0,.13-.13.46a2.39,2.39,0,0,0-.09.39q0,.29.38.29.13,0,.36-.63,0-.2.18-.66T55,39.91Z"/><path class="cls-1" d="M39.93,31q.29,0,.25-.45t-.07-.71q-.11-.65-.4-.65c-.18,0-.26.13-.26.38a2.85,2.85,0,0,0,.06.56Q39.64,31,39.93,31Z"/><path class="cls-1" d="M40.37,34.84c.06.22.17.31.35.27S41,35,41,34.84A6,6,0,0,0,40.8,34q-.18-.65-.45-.65t-.27.25a2.78,2.78,0,0,0,.11.63C40.27,34.5,40.33,34.71,40.37,34.84Z"/><path class="cls-1" d="M56.75,23.4q-.32.08-.32.26l0,1.32q.13.47.51.13a.54.54,0,0,0,.09-.22v-.94Q57.07,23.32,56.75,23.4Z"/><path class="cls-1" d="M56.76,27.54q-.33,0-.33.6,0,.33-.08.77t.32.44q.27,0,.31-.47,0-.29,0-.81T56.76,27.54Z"/><path class="cls-1" d="M55.82,35.82q-.25,0-.38.67a8.31,8.31,0,0,0-.13.87q0,.16.23.26t.37-.21a4.22,4.22,0,0,0,.12-.65q.08-.54.08-.67C56.11,35.91,56,35.82,55.82,35.82Z"/><path class="cls-1" d="M56.42,31.71q-.31,0-.4.89t.22.89q.29,0,.4-.87l.07-.55Q56.76,31.71,56.42,31.71Z"/><path class="cls-1" d="M54.06,25.75l-.38-5.4A31.39,31.39,0,0,0,53,16.58a28.33,28.33,0,0,1-4.18,6.23c0,.13,0,.25,0,.38q0,.67.07,1l0,5.33q0,.49-.16,2.27T48.59,34q-.07.33-.1.66t-.08.59L48,37.63a14.59,14.59,0,0,1-.69,2.14A6.67,6.67,0,0,1,46,41.6q-.87,1-1.21,1.25a4.82,4.82,0,0,1-1.7,1q-.76.21-1.7-1.06A14.56,14.56,0,0,1,39,36.6q-.66-3.75-.88-6.61,0-.45,0-1.29a1.66,1.66,0,0,0,0-.31,1.71,1.71,0,0,1,0-.31v-.69q0-3.08.18-5.54a26.72,26.72,0,0,1,1-5.25q.4-1.32.63-1.85a10.43,10.43,0,0,1,.85-1.67,2.17,2.17,0,0,1,1.52-1,2.92,2.92,0,0,0,.92-.31,1.84,1.84,0,0,1,.56-.09h.21A19.57,19.57,0,0,1,49.49,9a12.18,12.18,0,0,0-1-1,5.9,5.9,0,0,0-4-1.51q-.58,0-1.21,0a3.24,3.24,0,0,0-1.12.27.57.57,0,0,0-.16.09.28.28,0,0,1-.16.07l-1.23.22a7.15,7.15,0,0,0-1.43.51A7.43,7.43,0,0,0,38,8.48a9.06,9.06,0,0,0-1.79,2.1,12.32,12.32,0,0,0-1,2q-.42,1-.76,2.1a26.58,26.58,0,0,0-.79,3.24q-.35,1.85-.48,3.26L33,22.94a1.47,1.47,0,0,0,0,.23v.21q-.11,1.38-.11,3.3,0,.54,0,1t0,1a4.31,4.31,0,0,0,0,.48,3.93,3.93,0,0,1,0,.46l.07,1q.09,1,.16,1.79t.22,1.81a37.36,37.36,0,0,0,1,4.91A31.73,31.73,0,0,0,36,43.55a7.88,7.88,0,0,0,.49.95,10.32,10.32,0,0,0,.58.93,11.12,11.12,0,0,0,1.38,1.63,6.83,6.83,0,0,0,1.89,1.35,5,5,0,0,0,2.24.55,7.27,7.27,0,0,0,1.88-.2A8.67,8.67,0,0,0,46.22,48a6.53,6.53,0,0,0,1.35-.87q.61-.51,1.22-1l.13-.11.16-.13,1.41-1.63A14.14,14.14,0,0,0,52,41.65a16.35,16.35,0,0,0,1-3.14q.38-1.73.63-3.31T54,31.39q.12-2.13.12-3.81,0-.47,0-.92T54.06,25.75Z"/><path class="cls-1" d="M51.4,47.36a4.54,4.54,0,0,0-.62.51q-.54.47-.54.65t.36.29.61-.48q.5-.48.5-.68T51.4,47.36Z"/><path class="cls-1" d="M53.7,43.86q-.22-.11-.38.22l-.54,1.14a.9.9,0,0,0,.17.31q.17.25.52-.38a2.43,2.43,0,0,0,.26-.49,2.13,2.13,0,0,0,.19-.51A.33.33,0,0,0,53.7,43.86Z"/><path class="cls-1" d="M46.59,33.34a2.87,2.87,0,0,0,0,.47c0,.16.1.25.31.25s.31-.28.36-.85a1.51,1.51,0,0,0,0-.29q.09-.65-.27-.65t-.33.63Q46.62,33.14,46.59,33.34Z"/><path class="cls-1" d="M45.7,38.07q.26.1.64-.84,0-.11.17-.5t-.28-.39a.29.29,0,0,0-.29.25l-.29.71a3.15,3.15,0,0,1-.2.38A.38.38,0,0,0,45.7,38.07Z"/><path class="cls-1" d="M42.34,38q-.22-.61-.49-.7t-.38.22a1.5,1.5,0,0,0,.31.71,2.39,2.39,0,0,0,.42.58,1.57,1.57,0,0,0,1.18.76.32.32,0,0,0,.31-.23q.09-.23-.27-.39A1.71,1.71,0,0,1,42.34,38Z"/></svg>