<svg id="Calque_3" data-name="Calque 3" xmlns="http://www.w3.org/2000/svg" viewBox="0 0 57.22 41.36"><defs><style>.cls-1{fill:#efc75e;}.cls-2{fill:#e2574c;}.cls-3{fill:#cf5349;}.cls-4{fill:#d7b354;}.cls-5{fill:#ebebeb;}.cls-6{fill:#324d5b;}.cls-7{fill:#ccd0d2;}</style></defs><title>g</title><path class="cls-1" d="M23,26.46a3,3,0,0,1,.35,4.27c-1.18,1.17-4.72,2.48-5.9,1.31s.14-4.7,1.31-5.87A3,3,0,0,1,23,26.46Z"/><path class="cls-2" d="M33.91,23.86c1.77,3.67-2.55,12.22-4.55,9.8-.81-1-.76-2.54-2.87-4.56a2.09,2.09,0,0,0,1.68-.68C30.25,26.81,33.91,23.87,33.91,23.86Z"/><path class="cls-2" d="M26.47,15.63c-4-1.8-13.16,2.49-10.54,4.51,1.06.82,2.75.77,4.93,2.91a2,2,0,0,1,.73-1.68C23.3,19.29,26.45,15.63,26.47,15.63Z"/><path class="cls-3" d="M24.72,15.23h-.17c-.87,1.06-3,3.69-4.3,5.34A2.47,2.47,0,0,0,19.54,22a9.46,9.46,0,0,1,.79.61A2.62,2.62,0,0,1,21,21.36c1.66-2.12,4.68-5.82,4.69-5.82A4.23,4.23,0,0,0,24.72,15.23Z"/><path class="cls-3" d="M33.93,23.92c-.52.44-3.8,3.13-5.75,4.66a2.39,2.39,0,0,1-1.5.72,9.24,9.24,0,0,1,.73.82A2.34,2.34,0,0,0,29,29.39c1.63-1.29,4.19-3.37,5.28-4.28A4.25,4.25,0,0,0,33.93,23.92Z"/><path class="cls-4" d="M20.26,25.45a5.86,5.86,0,0,0,3.83,3.83,3.49,3.49,0,0,0-1-2.82A3.38,3.38,0,0,0,20.26,25.45Z"/><path class="cls-5" d="M40.5,9c.59.56-.28,8.86-6,14.5a47.16,47.16,0,0,1-6.4,5.33c-1.54.7-2.57,1.08-5.62-2S20.06,23,20.73,21.57a49.11,49.11,0,0,1,5.41-6.4C31.81,9.54,39.88,8.48,40.5,9Z"/><path class="cls-6" d="M33.41,16.11a3.14,3.14,0,1,1-4.43,0A3.14,3.14,0,0,1,33.41,16.11Z"/><path class="cls-7" d="M32.31,17.22a1.56,1.56,0,0,1,0,2.22,1.59,1.59,0,0,1-2.23,0,1.56,1.56,0,0,1,0-2.22A1.59,1.59,0,0,1,32.31,17.22Z"/></svg>