<?xml version="1.0" encoding="utf-8"?>
<!-- Generator: Adobe Illustrator 21.1.0, SVG Export Plug-In . SVG Version: 6.00 Build 0)  -->
<svg version="1.1" id="Calque_1" xmlns="http://www.w3.org/2000/svg" xmlns:xlink="http://www.w3.org/1999/xlink" x="0px" y="0px"
	 viewBox="0 0 300 200" style="enable-background:new 0 0 300 200;" xml:space="preserve">
<path d="M0,18l21-9L0,0l0,7l15,2L0,11L0,18z"/>
<path d="M37,0H23c-1.1,0-2,0.9-2,2v14c0,1.1,0.9,2,2,2h14c1.1,0,2-0.9,2-2V2C39,0.9,38.1,0,37,0z M37,16H23V2h14V16z M32,9.3
	l-2.8,3.5l-2-2.4L24.5,14h11L32,9.3z"/>
<g>
	<path d="M45.5,0H47v6h-1.5V0z M43,0h-3c-0.6,0-1,0.5-1,1v4c0,0.5,0.4,1,1,1h3c0.6,0,1-0.5,1-1V3h-1.5v1.5h-2v-3H44V1
		C44,0.5,43.6,0,43,0z M53,1.5V0h-4.5v6H50V4h2V2.5h-2v-1H53z"/>
</g>
<path d="M63,0c-5.5,0-10,4.5-10,10s4.5,10,10,10c5.5,0,10-4.5,10-10S68.5,0,63,0z M63,18c-4.4,0-8-3.6-8-8s3.6-8,8-8s8,3.6,8,8
	S67.4,18,63,18z M66.5,9C67.3,9,68,8.3,68,7.5S67.3,6,66.5,6S65,6.7,65,7.5S65.7,9,66.5,9z M59.5,9C60.3,9,61,8.3,61,7.5
	S60.3,6,59.5,6S58,6.7,58,7.5S58.7,9,59.5,9z M63,15.5c2.3,0,4.3-1.5,5.1-3.5H57.9C58.7,14,60.7,15.5,63,15.5z"/>
<path d="M80,0c-3.9,0-7,3.1-7,7c0,5.2,7,13,7,13s7-7.8,7-13C87,3.1,83.9,0,80,0z M80,9.5c-1.4,0-2.5-1.1-2.5-2.5s1.1-2.5,2.5-2.5
	s2.5,1.1,2.5,2.5S81.4,9.5,80,9.5z"/>
</svg>
